<svg viewBox="0 0 60 25" fill="none" xmlns="http://www.w3.org/2000/svg">
<path fill-rule="evenodd" clip-rule="evenodd" d="M27.6109 3.2838L24.055 4.047V1.164L27.6109 0.415V3.2838ZM35.0057 4.8808C33.6173 4.8808 32.7248 5.5308 32.229 5.9831L32.0448 5.1069H28.9281V21.5849L32.4698 20.8359L32.484 16.8365C32.994 17.2039 33.7448 17.7268 34.9915 17.7268C37.5273 17.7268 39.8365 15.6918 39.8365 11.2119C39.8223 7.1136 37.4848 4.8808 35.0057 4.8808ZM34.1556 14.6177C33.3198 14.6177 32.8239 14.321 32.4839 13.9535L32.4698 8.7105C32.8381 8.3007 33.3481 8.0181 34.1556 8.0181C35.4448 8.0181 36.3373 9.4595 36.3373 11.3108C36.3373 13.2045 35.4589 14.6177 34.1556 14.6177ZM51 11.3532C51 7.7354 49.2433 4.8808 45.8858 4.8808C42.5142 4.8808 40.4742 7.7354 40.4742 11.325C40.4742 15.5787 42.8825 17.7268 46.3392 17.7268C48.025 17.7268 49.3 17.3452 50.2633 16.8082V13.9818C49.3 14.4623 48.195 14.7591 46.7925 14.7591C45.4183 14.7591 44.2 14.2786 44.0442 12.611H50.9717C50.9717 12.5332 50.9768 12.3565 50.9826 12.1528C50.9906 11.8753 51 11.5486 51 11.3532ZM44.0016 10.0107C44.0016 8.4138 44.9791 7.7496 45.8716 7.7496C46.7358 7.7496 47.6566 8.4138 47.6566 10.0107H44.0016ZM24.0548 5.121H27.6107V17.4866H24.0548V5.121ZM20.0176 5.121L20.2443 6.1668C21.0801 4.6405 22.7376 4.9514 23.1909 5.121V8.3714C22.7518 8.2159 21.3351 8.0181 20.4993 9.1063V17.4866H16.9576V5.121H20.0176ZM13.1607 2.0543L9.704 2.7892L9.6899 14.109C9.6899 16.2005 11.2624 17.7409 13.359 17.7409C14.5207 17.7409 15.3707 17.529 15.8382 17.2746V14.4058C15.3849 14.5895 13.1465 15.2396 13.1465 13.148V8.1311H15.8382V5.121H13.1465L13.1607 2.0543ZM4.7884 7.9475C4.0375 7.9475 3.5842 8.1594 3.5842 8.7106C3.5842 9.3124 4.3644 9.5771 5.3323 9.9055C6.9102 10.4409 8.9871 11.1455 8.9959 13.7557C8.9959 16.2854 6.97 17.741 4.0234 17.741C2.805 17.741 1.4733 17.5007 0.1558 16.9355V13.572C1.3458 14.2221 2.8475 14.7026 4.0234 14.7026C4.8167 14.7026 5.3834 14.4906 5.3834 13.8405C5.3834 13.174 4.5376 12.8693 3.5166 12.5015C1.9616 11.9413 0 11.2346 0 8.8802C0 6.3788 1.9125 4.8808 4.7884 4.8808C5.9642 4.8808 7.1259 5.0645 8.3017 5.5309V8.8519C7.225 8.2725 5.865 7.9475 4.7884 7.9475Z" fill="#635BFF"/>
</svg>